<svg width="380" height="350" viewBox="0 0 380 350" fill="none" xmlns="http://www.w3.org/2000/svg">
    <path d="M195.509 94.6077C187.113 94.6077 178.718 94.6077 170.322 94.6077C164.476 94.6077 153.855 92.6338 148.821 95.9899C130.986 107.88 118.105 135.477 118.105 156.5C118.105 170.51 118.085 181.18 125.016 193.819C130.71 204.203 137.402 216.36 147.132 223.46C158.155 231.504 175.271 230.073 188.291 231.753C202.805 233.626 212.405 233.003 224.535 224.535C244.324 210.72 254.944 182.958 254.944 159.571C254.944 143.805 243.447 132.257 233.135 121.945C225.476 114.285 220.463 107.469 210.713 102.594C207.233 100.854 193.133 88.3025 189.98 94.6077" stroke="#FCC539" stroke-width="3" stroke-linecap="round"/>
    <path d="M145.749 224.535C145.749 247.639 137.177 270.035 131.62 292.263C129.427 301.037 127.389 309.914 124.402 318.448C123.483 321.074 122.252 324.032 122.252 326.818" stroke="#FCC539" stroke-width="3" stroke-linecap="round"/>
    <path d="M194.127 231.446C194.127 242.447 193.187 253.825 195.586 264.619C198.667 278.485 203.232 292.053 206.874 305.778C210.499 319.444 214.86 333.343 214.86 347.551" stroke="#FCC539" stroke-width="3" stroke-linecap="round"/>
    <path d="M235.593 213.477C245.649 215.489 256.144 233.017 262.469 240.354C272.028 251.443 281.264 261.546 292.186 271.376C297.046 275.75 304.486 280.772 307.467 286.734" stroke="#FCC539" stroke-width="3" stroke-linecap="round"/>
    <path d="M254.944 159.571C277.011 159.571 299.631 157.764 321.289 162.336C334.464 165.117 346.541 167.865 360.068 167.865C363.511 167.865 376.237 165.801 377.96 169.247" stroke="#FCC539" stroke-width="3" stroke-linecap="round"/>
    <path d="M242.504 127.781C251.573 126.874 262.203 119.054 270.071 114.726C277.54 110.618 286.06 108.277 293.338 103.976C302.89 98.3317 316.791 84.9323 328.2 84.9323" stroke="#FCC539" stroke-width="3" stroke-linecap="round"/>
    <path d="M136.074 102.901C129.861 97.8178 121.425 95.9153 115.341 90.3843C110.822 86.2758 105.232 81.7739 101.519 76.9461C95.6898 69.3685 84.2192 69.0148 77.3302 62.1258C70.1718 54.9674 61.2259 43.4661 50.3772 43.4661" stroke="#FCC539" stroke-width="3" stroke-linecap="round"/>
    <path d="M130.545 201.037C125.337 201.558 120.106 206.722 116.416 209.945C107.38 217.837 98.7028 226.157 89.1558 233.443C81.79 239.064 74.6165 244.916 67.2708 250.566C63.7264 253.293 59.141 254.643 55.906 257.708C51.9654 261.441 50.7017 267.242 45.6163 270.148C42.9697 271.66 40.6271 275.826 39.3196 278.441" stroke="#FCC539" stroke-width="3" stroke-linecap="round"/>
    <path d="M206.566 98.7545C206.566 81.0174 214.387 62.3394 223.153 46.9985C225.424 43.0238 228.998 36.1693 229.987 31.7175C230.797 28.0712 231.155 23.315 232.828 19.9688" stroke="#FCC539" stroke-width="3" stroke-linecap="round"/>
    <path d="M166.482 2V94.6078" stroke="#FCC539" stroke-width="3" stroke-linecap="round"/>
    <path d="M122.252 138.838C104.632 138.838 87.3501 133.108 70.3424 128.856C57.7762 125.714 45.0288 123.314 32.4853 120.178C23.0865 117.829 11.723 119.487 2 119.487" stroke="#FCC539" stroke-width="3" stroke-linecap="round"/>
    <path d="M118.105 176.158C102.747 176.158 88.2995 178.032 73.1068 180.304C64.3477 181.615 55.6421 183.42 46.8449 184.451C40.2342 185.226 32.2165 184.308 25.8046 186.14C20.2279 187.734 14.8146 189.98 8.91101 189.98" stroke="#FCC539" stroke-width="3" stroke-linecap="round"/>
</svg>
    
